<?xml version="1.0" encoding="UTF-8"?>
<svg version="1.1" viewBox="0 0 2048 1536" width="577" height="433" xmlns="http://www.w3.org/2000/svg">
<path transform="translate(996,320)" d="m0 0h48l38 3 45 9 39 10 16 6 30 13 19 10 18 10 15 8 19 14 16 12 17 14 12 11 13 12 8 8 7 8 12 14 11 14 12 16 10 14 9 17 13 23 8 16 8 18 6 15 14 49 7 36 3 23 1 13v65l-2 22-7 40-8 29-9 31-8 19-7 15-7 14-16 28-6 11-10 14-12 16-13 16-9 10-7 8-25 25-8 7-12 10-12 9-18 13-14 10-22 11-23 13-32 14-19 7-36 9-35 7-21 3-25 2h-46l-27-2-32-5-28-6-32-8-21-8-27-12-23-12-16-9-12-6-13-10-13-9-16-13-10-8-11-10-8-7-15-15-9-11-10-11-11-14-12-16-9-13-12-22-12-21-12-25-8-20-10-35-6-23-6-31-4-37v-55l4-38 7-35 10-35 7-24 10-23 8-17 12-21 9-16 5-9 9-12 14-19 12-14 7-8 11-12 22-22 8-7 17-14 19-14 10-7 11-7 17-9 22-12 25-12 28-11 25-6 23-6 31-6 34-3zm2 31-40 5-30 6-25 7-29 10-30 12-17 9-26 16-19 12-13 10-16 13-12 11-29 29-9 11-10 12-11 16-10 15-13 21-9 16-8 20-8 19-13 38v3l4-2 13-11 9-9 19-14 22-14 38-19 20-9 41-15 31-7 28-7 42-8 43-6 35-3 18-1 74-2 12-1 15-4 12-6 15-9 10-11 10-16 7-22 2-16v-11l-2-18-6-21-4-8-9-10-9-9-10-7-15-8-15-4-25-3zm14 217-17 3-16 6-11 6-10 8-9 11-8 11-6 13-4 14-2 16 1 19 4 17 8 16 7 11 9 11 9 8 16 8 17 4 15 2 132 1 44 1 61 3 43 4 32 5 22 5 27 9 24 11 13 11 9 9 10 13h1l-1-11-3-19-7-23-8-18-8-13-7-14-10-14-11-12-10-10-7-8-11-12-11-9-8-6-14-9-13-9-22-13-27-14-18-6-18-7-18-6-36-9-35-6-52-6-26-2zm-401 145 3 24 6 21 8 20 8 15 8 14 6 10 11 14 21 21 7 8 12 12 14 10 11 7 15 11 24 14 23 12 21 7 30 11 31 8 31 6 42 6 32 3 13 1h46l16-3 16-6 14-8 11-10 7-10 6-8 7-17 3-13 1-9v-13l-2-17-4-13-7-14-11-16-5-6-14-10-11-5-18-4-17-2-145-1-58-2-47-3-36-4-29-5-23-6-25-9-17-8-13-10-12-12-8-11zm813 159-10 9-9 7-9 9-18 13-22 14-35 17-20 9-30 11-15 5-51 12-40 8-41 6-28 3-29 2-22 1-61 1-16 3-13 5-18 11-8 7-8 10-8 16-5 15-3 17v17l4 20 6 18 7 11 13 12 15 10 13 6 16 4 23 2h42l34-3 28-5 25-6 36-12 27-10 23-11 21-13 19-12 10-6 13-11 9-7 10-9 8-7 5-4 3-3v-2l4-2 12-13 11-12 11-14 13-18 12-19 14-23 8-16 12-30 12-36 2-7z" fill="#FEFEFE"/>
</svg>
